<?xml version="1.0" encoding="UTF-8"?>
<svg xmlns="http://www.w3.org/2000/svg" xmlns:xlink="http://www.w3.org/1999/xlink" id="Ebene_1" data-name="Ebene 1" viewBox="0 0 188.02 52.04">
  <defs>
    <style>.cls-1{fill:none;}.cls-2{clip-path:url(#clip-path);}.cls-3{fill:#004a70;}.cls-4{fill:#1c9cd9;}.cls-5{clip-path:url(#clip-path-2);}</style>
    <clipPath id="clip-path" transform="translate(0 -0.14)">
      <rect class="cls-1" y="0.14" width="188.02" height="52.18"></rect>
    </clipPath>
    <clipPath id="clip-path-2" transform="translate(0 -0.14)">
      <rect class="cls-1" width="188.02" height="52.18"></rect>
    </clipPath>
  </defs>
  <title>211123_Logo_IMI-rgb</title>
  <g class="cls-2">
    <path class="cls-3" d="M38.2,52s-9.35-34.57-9.85-36c.16,1.87,0,36.05,0,36.05H19.08V.14H33.91s9,35.43,9.61,38.85C43.77,38,53.46.14,53.46.14H68.3V52H59s-.15-34.18,0-36C58.13,19,49,52,49,52Z" transform="translate(0 -0.14)"></path>
  </g>
  <rect class="cls-4" x="78.38" width="9" height="51.8"></rect>
  <rect class="cls-4" width="8.99" height="51.85"></rect>
  <rect class="cls-4" x="100.22" y="43.71" width="1.44" height="8.12"></rect>
  <polygon class="cls-4" points="110.58 43.71 110.58 49.74 110.56 49.74 106.63 43.71 104.71 43.71 104.71 51.83 106.16 51.83 106.16 45.6 106.18 45.6 110.19 51.83 112.03 51.83 112.03 43.71 110.58 43.71"></polygon>
  <polygon class="cls-4" points="115.46 43.71 115.46 51.83 116.9 51.83 116.9 48.46 120.48 48.46 120.48 47.15 116.9 47.15 116.9 45.02 120.7 45.02 120.7 43.71 115.46 43.71"></polygon>
  <g class="cls-5">
    <path class="cls-4" d="M129.64,47.85a3.38,3.38,0,0,1-.2,1.21,2.91,2.91,0,0,1-.56.95,2.57,2.57,0,0,1-.89.63,3,3,0,0,1-2.29,0,2.5,2.5,0,0,1-.87-.63,2.77,2.77,0,0,1-.57-.95,3.38,3.38,0,0,1-.2-1.21,3.11,3.11,0,0,1,.2-1.14,2.64,2.64,0,0,1,.57-.92,2.6,2.6,0,0,1,.87-.62,3.09,3.09,0,0,1,2.29,0,2.69,2.69,0,0,1,.89.62,2.77,2.77,0,0,1,.56.92,3.11,3.11,0,0,1,.2,1.14m1.52,0a4.77,4.77,0,0,0-.32-1.77,3.85,3.85,0,0,0-.9-1.35,3.76,3.76,0,0,0-1.36-.86,4.91,4.91,0,0,0-1.75-.28,4.78,4.78,0,0,0-1.72.3,4.07,4.07,0,0,0-1.36.87,4,4,0,0,0-.89,1.36,4.77,4.77,0,0,0-.32,1.77,4.65,4.65,0,0,0,.32,1.74,4,4,0,0,0,.89,1.33,3.9,3.9,0,0,0,1.36.86,4.78,4.78,0,0,0,1.72.31,4.91,4.91,0,0,0,1.75-.33,4,4,0,0,0,2.26-2.22,4.59,4.59,0,0,0,.32-1.73" transform="translate(0 -0.14)"></path>
  </g>
  <g class="cls-5">
    <path class="cls-4" d="M129.64,47.85a3.38,3.38,0,0,1-.2,1.21,2.91,2.91,0,0,1-.56.95,2.57,2.57,0,0,1-.89.63,3,3,0,0,1-2.29,0,2.5,2.5,0,0,1-.87-.63,2.77,2.77,0,0,1-.57-.95,3.38,3.38,0,0,1-.2-1.21,3.11,3.11,0,0,1,.2-1.14,2.64,2.64,0,0,1,.57-.92,2.6,2.6,0,0,1,.87-.62,3.09,3.09,0,0,1,2.29,0,2.69,2.69,0,0,1,.89.62,2.77,2.77,0,0,1,.56.92,3.11,3.11,0,0,1,.2,1.14m1.52,0a4.77,4.77,0,0,0-.32-1.77,3.85,3.85,0,0,0-.9-1.35,3.76,3.76,0,0,0-1.36-.86,4.91,4.91,0,0,0-1.75-.28,4.78,4.78,0,0,0-1.72.3,4.07,4.07,0,0,0-1.36.87,4,4,0,0,0-.89,1.36,4.77,4.77,0,0,0-.32,1.77,4.65,4.65,0,0,0,.32,1.74,4,4,0,0,0,.89,1.33,3.9,3.9,0,0,0,1.36.86,4.78,4.78,0,0,0,1.72.31,4.91,4.91,0,0,0,1.75-.33,4,4,0,0,0,2.26-2.22,4.59,4.59,0,0,0,.32-1.73" transform="translate(0 -0.14)"></path>
  </g>
  <polygon class="cls-4" points="149.51 43.71 147.32 49.4 145.15 43.71 142.95 43.71 142.95 51.83 144.33 51.83 144.33 45.08 144.35 45.08 146.82 51.83 147.83 51.83 150.29 45.08 150.32 45.08 150.32 51.83 151.69 51.83 151.69 43.71 149.51 43.71"></polygon>
  <g class="cls-5">
    <path class="cls-4" d="M138,46.16a1,1,0,0,1-.16.63.87.87,0,0,1-.42.33,2,2,0,0,1-.56.14l-.62,0h-1.13v-2.2h1.25l.57,0a1.72,1.72,0,0,1,.53.14,1,1,0,0,1,.39.33,1,1,0,0,1,.15.57m1,1.5a2.26,2.26,0,0,0,.49-1.48,2.4,2.4,0,0,0-.25-1.14,1.93,1.93,0,0,0-.68-.71,2.76,2.76,0,0,0-1-.37,5.22,5.22,0,0,0-1.13-.11h-2.82V52h1.44V48.53h1.06L138.09,52h1.74l-2.15-3.59a2.14,2.14,0,0,0,1.39-.72" transform="translate(0 -0.14)"></path>
  </g>
  <path class="cls-4" d="M158.13,45.57l1.25,3.3h-2.53Zm-.59-1.72L154,52h1.61l.74-1.86h3.52l.76,1.86h1.65l-3.5-8.12Z" transform="translate(0 -0.14)"></path>
  <polygon class="cls-4" points="163.08 43.71 163.08 45.02 165.57 45.02 165.57 51.83 167.01 51.83 167.01 45.02 169.5 45.02 169.5 43.71 163.08 43.71"></polygon>
  <rect class="cls-4" x="171.87" y="43.71" width="1.45" height="8.12"></rect>
  <polygon class="cls-4" points="180.99 43.71 177.63 47.15 177.56 47.15 177.56 43.71 176.12 43.71 176.12 51.83 177.56 51.83 177.56 47.84 177.64 47.84 181.17 51.83 183.2 51.83 179.15 47.46 182.94 43.71 180.99 43.71"></polygon>
  <g class="cls-5">
    <path class="cls-3" d="M182.43,37.22H188V35.91h-4.14v-2.2h3.73V32.4h-3.73v-2h3.94V29.09h-5.39Zm-9,0h1.45V33.64h3.8v3.58h1.44V29.09h-1.44v3.24h-3.8V29.09h-1.45Zm-1.61-7a3.64,3.64,0,0,0-1.32-1,3.86,3.86,0,0,0-1.53-.29,4.84,4.84,0,0,0-1.73.3,3.83,3.83,0,0,0-1.35.87,3.87,3.87,0,0,0-.89,1.36,4.77,4.77,0,0,0-.32,1.77,4.56,4.56,0,0,0,.32,1.73,3.88,3.88,0,0,0,.89,1.34,4,4,0,0,0,1.35.86,4.84,4.84,0,0,0,1.73.3,4.18,4.18,0,0,0,1.69-.34A3.35,3.35,0,0,0,172,36l-1.19-.85a2.73,2.73,0,0,1-.87.75,2.07,2.07,0,0,1-1,.24,2.8,2.8,0,0,1-1.14-.23,2.94,2.94,0,0,1-.88-.63,3.06,3.06,0,0,1-.57-1,3.55,3.55,0,0,1-.2-1.2,3.25,3.25,0,0,1,.2-1.14A3,3,0,0,1,167,31a2.6,2.6,0,0,1,.88-.62A2.79,2.79,0,0,1,169,30.2a2.24,2.24,0,0,1,.84.16,2.36,2.36,0,0,1,.87.64Zm-8.6-.45a3,3,0,0,0-1.08-.64,4,4,0,0,0-1.25-.19,4.11,4.11,0,0,0-1.1.15,3,3,0,0,0-1,.45,2.33,2.33,0,0,0-.67.76,2.12,2.12,0,0,0-.26,1.09,2.1,2.1,0,0,0,.28,1.16,2.33,2.33,0,0,0,.72.68,3.55,3.55,0,0,0,.93.41c.33.1.64.21.92.32a2.6,2.6,0,0,1,.72.4.86.86,0,0,1,.28.69,1,1,0,0,1-.12.49,1.14,1.14,0,0,1-.34.35,1.62,1.62,0,0,1-.46.21,2.08,2.08,0,0,1-.5.07,2,2,0,0,1-1.61-.85l-1.09,1a2.82,2.82,0,0,0,1.21.85,4.19,4.19,0,0,0,1.46.25,3.86,3.86,0,0,0,1.13-.16,2.58,2.58,0,0,0,.95-.48,2.26,2.26,0,0,0,.65-.81,2.52,2.52,0,0,0,.24-1.14,2.1,2.1,0,0,0-.29-1.16,2.37,2.37,0,0,0-.71-.7,3.92,3.92,0,0,0-.93-.41c-.34-.1-.65-.2-.93-.31a2.79,2.79,0,0,1-.71-.38.75.75,0,0,1-.29-.63,1,1,0,0,1,.12-.48.84.84,0,0,1,.3-.32,1.28,1.28,0,0,1,.43-.19,1.86,1.86,0,0,1,.48-.05,2.16,2.16,0,0,1,.81.15,1.36,1.36,0,0,1,.62.49Zm-8.83,7.5h1.44V29.09h-1.44Zm-10,0h1.44V31h0l4,6.23h1.84V29.09h-1.45v6h0l-3.94-6h-1.91Zm-4.09,0h1.45V29.09h-1.45Zm-8.34,0h6.21V35.91h-4.44l4.37-5.51V29.09h-6.07V30.4h4.27L132,35.91Zm-3.29,0h1.44V29.09h-1.44Zm-7.69-1.31V30.4h1.32a4.29,4.29,0,0,1,1.22.16,2.67,2.67,0,0,1,1,.48,2.18,2.18,0,0,1,.63.85,3.1,3.1,0,0,1,.23,1.27,2.7,2.7,0,0,1-.26,1.26,2.24,2.24,0,0,1-.7.85,3,3,0,0,1-1,.48,4.83,4.83,0,0,1-1.28.16Zm-1.45,1.31h3a4.72,4.72,0,0,0,1.5-.25,4.17,4.17,0,0,0,1.39-.75,3.73,3.73,0,0,0,1-1.26,3.92,3.92,0,0,0,.4-1.8,4.35,4.35,0,0,0-.35-1.8,3.62,3.62,0,0,0-.92-1.27,3.91,3.91,0,0,0-1.32-.75,5,5,0,0,0-1.54-.25h-3.21Zm-7.87,0h5.59V35.91h-4.14v-2.2h3.73V32.4h-3.73v-2h3.93V29.09h-5.38Zm-11.45,0h1.38V30.47h0l2.47,6.75h1l2.47-6.75h0v6.75H109V29.09h-2.18l-2.2,5.7-2.16-5.7h-2.21Z" transform="translate(0 -0.14)"></path>
  </g>
  <rect class="cls-4" x="100.22" y="14.2" width="1.45" height="8.12"></rect>
  <polygon class="cls-4" points="104.71 22.32 106.16 22.32 106.16 16.09 106.18 16.09 110.19 22.32 112.03 22.32 112.03 14.2 110.58 14.2 110.58 20.24 110.56 20.24 106.63 14.2 104.71 14.2 104.71 22.32"></polygon>
  <g class="cls-5">
    <path class="cls-4" d="M119.91,15a2.84,2.84,0,0,0-1.08-.64,4.05,4.05,0,0,0-2.35-.05,2.85,2.85,0,0,0-1,.46,2.37,2.37,0,0,0-.68.76,2.22,2.22,0,0,0-.25,1.09,2,2,0,0,0,.28,1.15,2.22,2.22,0,0,0,.71.69,4.31,4.31,0,0,0,.93.41c.34.1.65.2.93.31a2.65,2.65,0,0,1,.71.41.83.83,0,0,1,.29.69.9.9,0,0,1-.13.49,1,1,0,0,1-.33.35,1.46,1.46,0,0,1-.46.2,1.73,1.73,0,0,1-.5.07,1.91,1.91,0,0,1-.91-.22,1.85,1.85,0,0,1-.7-.63l-1.09,1.06a2.82,2.82,0,0,0,1.21.85,4.17,4.17,0,0,0,1.45.25,3.88,3.88,0,0,0,1.14-.16,3,3,0,0,0,.95-.48,2.33,2.33,0,0,0,.64-.81,2.43,2.43,0,0,0,.25-1.14,2.1,2.1,0,0,0-.29-1.16,2.37,2.37,0,0,0-.71-.7,3.87,3.87,0,0,0-.93-.41c-.34-.1-.65-.21-.93-.31a3.14,3.14,0,0,1-.71-.38.76.76,0,0,1-.29-.63,1,1,0,0,1,.11-.48,1.08,1.08,0,0,1,.31-.33,1.57,1.57,0,0,1,.42-.18,2,2,0,0,1,.49-.06,2.05,2.05,0,0,1,.81.16,1.23,1.23,0,0,1,.61.49Z" transform="translate(0 -0.14)"></path>
  </g>
  <polygon class="cls-4" points="123.9 22.32 125.34 22.32 125.34 15.51 127.83 15.51 127.83 14.2 121.41 14.2 121.41 15.51 123.9 15.51 123.9 22.32"></polygon>
  <rect class="cls-4" x="129.49" y="14.2" width="1.45" height="8.12"></rect>
  <polygon class="cls-4" points="135.24 22.32 136.68 22.32 136.68 15.51 139.17 15.51 139.17 14.2 132.75 14.2 132.75 15.51 135.24 15.51 135.24 22.32"></polygon>
  <g class="cls-5">
    <path class="cls-4" d="M147.22,14.32h-1.44v5.09a2.39,2.39,0,0,1-.09.63,1.91,1.91,0,0,1-.31.6,1.69,1.69,0,0,1-.56.45,2.17,2.17,0,0,1-1.73,0,1.59,1.59,0,0,1-.56-.45,1.72,1.72,0,0,1-.31-.6,2.39,2.39,0,0,1-.09-.63V14.32h-1.45v5.14a3.45,3.45,0,0,0,.25,1.32,2.88,2.88,0,0,0,.69,1,3.12,3.12,0,0,0,1,.63,3.76,3.76,0,0,0,2.59,0,3.07,3.07,0,0,0,1-.63,3,3,0,0,0,.69-1,3.27,3.27,0,0,0,.25-1.32Z" transform="translate(0 -0.14)"></path>
  </g>
  <polygon class="cls-4" points="151.11 22.32 152.56 22.32 152.56 15.51 155.05 15.51 155.05 14.2 148.62 14.2 148.62 15.51 151.11 15.51 151.11 22.32"></polygon>
  <polygon class="cls-4" points="160.95 22.32 162.4 22.32 162.4 18.95 165.98 18.95 165.98 17.64 162.4 17.64 162.4 15.51 166.2 15.51 166.2 14.2 160.95 14.2 160.95 22.32"></polygon>
  <g class="cls-5">
    <path class="cls-4" d="M175,14.34h-1.44v5.1a2.38,2.38,0,0,1-.09.62,1.9,1.9,0,0,1-.31.6,1.59,1.59,0,0,1-.56.46,2.29,2.29,0,0,1-1.73,0,1.63,1.63,0,0,1-.57-.46,1.69,1.69,0,0,1-.3-.6,2.38,2.38,0,0,1-.09-.62v-5.1h-1.45v5.14a3.54,3.54,0,0,0,.25,1.33,2.72,2.72,0,0,0,.69,1,3,3,0,0,0,1,.64,3.6,3.6,0,0,0,1.29.22,3.66,3.66,0,0,0,1.3-.22,2.94,2.94,0,0,0,1-.64,3,3,0,0,0,.69-1,3.35,3.35,0,0,0,.25-1.33Z" transform="translate(0 -0.14)"></path>
    <path class="cls-4" d="M169.91,13.54a.85.85,0,0,0,.63.25.93.93,0,0,0,.64-.24.75.75,0,0,0,.25-.59.78.78,0,0,0-.25-.59,1,1,0,0,0-.64-.23.88.88,0,0,0-.63.24.82.82,0,0,0-.24.58.78.78,0,0,0,.24.58" transform="translate(0 -0.14)"></path>
    <path class="cls-4" d="M172.28,13.54a.81.81,0,0,0,.62.25.89.89,0,0,0,.64-.24.76.76,0,0,0,.26-.59.79.79,0,0,0-.26-.59.93.93,0,0,0-.64-.23.84.84,0,0,0-.62.24A.79.79,0,0,0,172,13a.76.76,0,0,0,.25.58" transform="translate(0 -0.14)"></path>
    <path class="cls-4" d="M181.65,16.66a1.09,1.09,0,0,1-.16.62,1.07,1.07,0,0,1-.42.34,1.7,1.7,0,0,1-.57.13c-.21,0-.41,0-.62,0h-1.12v-2.2H180l.57,0a2.18,2.18,0,0,1,.53.15.89.89,0,0,1,.39.33,1,1,0,0,1,.15.57m1,1.49a2.29,2.29,0,0,0,.48-1.48,2.29,2.29,0,0,0-.25-1.14,2,2,0,0,0-.68-.71,2.88,2.88,0,0,0-1-.37,5.93,5.93,0,0,0-1.13-.11h-2.82v8.12h1.45V19h1.05l1.88,3.44h1.75l-2.16-3.59a2.08,2.08,0,0,0,1.4-.72" transform="translate(0 -0.14)"></path>
  </g>
</svg>
